<svg xmlns="http://www.w3.org/2000/svg" version="1.1" xmlns:xlink="http://www.w3.org/1999/xlink" xmlns:svgjs="http://svgjs.com/svgjs" width="44" height="46"><svg width="44" height="46" viewBox="0 0 44 46" fill="none" xmlns="http://www.w3.org/2000/svg">
<path d="M29.6575 4.73197C33.1648 6.37747 35.3879 9.08238 36.564 12.6675C36.9995 13.9948 37.2963 15.3532 37.4016 16.742C37.5097 18.1672 37.3385 19.5739 36.9579 20.9557C36.5513 22.4324 35.9425 23.8292 35.2293 25.1828C34.4345 26.6911 33.6402 28.1996 32.8891 29.7293C32.5015 30.5188 32.3264 31.369 32.2143 32.2331C32.0317 33.6404 32.086 35.0479 32.2057 36.4559C32.2742 37.261 32.336 38.0667 32.3976 38.8723C32.4238 39.2146 32.2802 39.3722 31.9356 39.3656C30.3059 39.3347 28.6762 39.3086 27.0474 39.2412C26.4498 39.2165 25.8515 39.2184 25.2534 39.1988C23.7063 39.1479 22.1582 39.1301 20.6107 39.0927C19.8559 39.0745 19.1015 39.0424 18.3471 39.0151C18.2843 39.0129 18.222 38.9994 18.1605 38.9719C19.1756 38.8645 20.1982 38.9316 21.2297 38.8337C21.1056 38.2613 20.9851 37.7101 20.9029 37.1518C20.7495 36.1107 20.6565 35.065 20.6005 34.0142C20.5634 33.3164 20.5624 32.6183 20.5367 31.9206C20.5227 31.5393 20.5423 31.1558 20.5685 30.7747C20.5826 30.5695 20.4993 30.4519 20.3344 30.3438C19.4622 29.7721 18.6353 29.1409 17.8275 28.4844C17.6593 28.3477 17.5827 28.2109 17.6398 27.9909C17.7099 27.7211 17.7345 27.4398 17.8046 27.1701C17.8566 26.9703 17.8123 26.8659 17.6134 26.7777C17.0449 26.5256 16.7 26.0818 16.5538 25.488C16.5375 25.4216 16.4982 25.3491 16.5854 25.2593C16.7939 25.9446 17.2161 26.3259 17.9599 26.1237C18.4283 25.9964 18.6628 25.5643 18.636 25.0251C18.6123 24.5481 18.3068 24.1731 17.848 24.0704C17.554 24.0046 17.2844 24.0733 17.0402 24.2429C16.799 24.4105 16.671 24.6529 16.6092 24.9888C16.4019 24.4671 17.0932 23.5919 17.8196 23.3538C18.7897 23.0357 19.8535 23.6238 20.1209 24.6349C20.282 25.2442 20.1574 25.8016 19.756 26.2935C19.3498 26.7912 18.792 26.9589 18.1357 26.9621C18.1967 27.2738 18.2499 27.5602 18.3103 27.8451C18.3303 27.9396 18.4292 27.9503 18.5022 27.98C19.5328 28.4003 20.5221 28.9035 21.5102 29.4109C21.8486 29.5846 22.0402 29.8108 22.0499 30.1977C22.0783 31.323 22.0942 32.4483 22.0423 33.5728C22.0041 34.402 21.941 35.2301 21.8506 36.056C21.7569 36.9114 21.6288 37.7606 21.4323 38.5993C21.375 38.8437 21.3842 38.8609 21.63 38.8538C22.4372 38.8304 23.2441 38.7967 24.0514 38.7784C24.3023 38.7727 24.2625 38.6182 24.2353 38.4762C24.1216 37.8835 24.0475 37.2853 23.9734 36.6872C23.8668 35.8262 23.814 34.9606 23.744 34.0962C23.6074 32.4086 23.5934 30.7181 23.5945 29.0275C23.5951 28.0425 23.6204 27.0564 23.6756 26.0729C23.7594 24.5771 23.8653 23.082 24.096 21.5988C24.1378 21.3302 24.1599 21.0576 24.2201 20.7932C24.2601 20.6176 24.2076 20.5439 24.0467 20.4792C23.3953 20.217 23.0448 19.715 22.9083 19.0519C22.9039 19.0305 22.9034 19.0078 22.9052 18.9861C22.9063 18.9724 22.9152 18.9594 22.9419 18.8936C23.0847 19.3016 23.2481 19.6544 23.6668 19.7966C24.0518 19.9273 24.4969 19.8209 24.7496 19.5272C25.1624 19.0473 25.0823 18.262 24.5825 17.916C24.2596 17.6924 23.9142 17.6779 23.5615 17.8361C23.215 17.9915 23.0658 18.3014 22.9722 18.6342C22.9056 18.6238 22.9032 18.5929 22.9064 18.5652C23.0156 17.6185 23.8712 16.9057 24.8344 16.9582C25.7996 17.0108 26.5389 17.8078 26.5653 18.7684C26.5881 19.5979 25.8843 20.65 24.7158 20.6056C24.5093 20.5978 24.4758 20.681 24.5076 20.8577C24.6936 21.892 24.806 22.9352 24.9038 23.9809C25.1465 26.5775 25.1609 29.1801 25.1044 31.7831C25.0664 33.5314 24.9325 35.2756 24.7127 37.0119C24.6473 37.5285 24.5559 38.0422 24.4662 38.5556C24.439 38.7114 24.4771 38.775 24.6428 38.7694C25.4648 38.7417 26.2868 38.7161 27.1089 38.6956C27.272 38.6915 27.3202 38.6207 27.2936 38.4737C27.1285 37.5624 27.0133 36.6441 26.9147 35.7241C26.8536 35.1543 26.8039 34.5829 26.7694 34.011C26.6695 32.3519 26.6123 30.6909 26.6466 29.0289C26.6651 28.1329 26.6751 27.236 26.7496 26.3411C26.7746 26.0401 26.908 25.8496 27.1675 25.7168C28.1628 25.2076 29.1625 24.7071 30.19 24.2636C30.3811 24.1811 30.4957 24.0878 30.5015 23.8657C30.5064 23.6766 30.5476 23.4854 30.5968 23.3014C30.6388 23.1443 30.5839 23.0786 30.4409 23.0211C29.8179 22.7707 29.4584 22.3002 29.3022 21.667C29.2851 21.5978 29.2492 21.5292 29.3259 21.4329C29.4414 21.8469 29.6335 22.1854 30.0528 22.3342C30.2476 22.4033 30.4458 22.4154 30.6468 22.3552C31.1382 22.2079 31.4082 21.8064 31.3859 21.253C31.3663 20.7683 31.0597 20.3918 30.614 20.2889C30.2993 20.2162 30.0222 20.2889 29.7662 20.4684C29.5142 20.645 29.4194 20.9164 29.3435 21.2032C29.2561 21.1624 29.2743 21.1071 29.2812 21.0621C29.425 20.1252 30.2454 19.449 31.1977 19.4808C32.0896 19.5105 32.8654 20.2697 32.9327 21.1786C33.0028 22.1271 32.3582 22.9535 31.414 23.1244C31.3333 23.1391 31.2521 23.1552 31.1705 23.1601C30.8644 23.1784 30.8636 23.1768 30.907 23.4648C30.9453 23.7189 30.9761 23.9746 31.0281 24.2261C31.064 24.3999 31.0149 24.5212 30.8784 24.6313C30.0971 25.2613 29.2874 25.8547 28.4525 26.413C28.2108 26.5747 28.1013 26.7396 28.1204 27.0387C28.1676 27.7794 28.2049 28.523 28.1924 29.2646C28.175 30.3011 28.2015 31.338 28.1447 32.3744C28.1008 33.1742 28.0586 33.9738 28.0015 34.7729C27.9162 35.9679 27.7613 37.1542 27.5677 38.3363C27.5502 38.4431 27.5173 38.55 27.5551 38.6734C27.9951 38.6734 28.4343 38.682 28.8729 38.6715C29.6727 38.6524 30.4721 38.6149 31.272 38.6011C31.4873 38.5973 31.5419 38.5255 31.5199 38.3255C31.4125 37.3468 31.2979 36.3684 31.2181 35.3873C31.1377 34.398 31.1199 33.406 31.1926 32.4136C31.2442 31.7083 31.3414 31.0112 31.5317 30.3288C31.8182 29.3013 32.3143 28.3591 32.7736 27.4022C33.5521 25.7801 34.3869 24.1831 35.0434 22.5063C35.5505 21.2111 35.9301 19.8826 36.0391 18.4948C36.12 17.4649 36.0288 16.4426 35.8313 15.4245C35.4865 13.6477 34.928 11.9524 33.9778 10.3933C32.9493 8.70588 31.5497 7.39959 29.7953 6.46195C27.653 5.31697 25.3554 4.81274 22.926 4.94266C20.6058 5.06675 18.5215 5.86395 16.6723 7.23533C14.2956 8.9978 12.7475 11.3038 12.0916 14.1676C11.879 15.0958 11.7959 16.0411 11.8625 16.994C11.8996 17.5257 11.7428 17.9683 11.3319 18.3363C10.5804 19.0095 9.80677 19.6615 9.13186 20.413C8.63972 20.9611 8.18326 21.5317 7.97506 22.2544C7.85728 22.6633 7.89676 22.7926 8.25219 23.0392C8.67989 23.3361 9.16492 23.5465 9.56884 23.8786C9.68883 23.9773 9.80744 24.0816 9.90718 24.1993C10.207 24.5531 10.2246 24.9267 9.97862 25.3191C9.83619 25.5463 9.65032 25.7392 9.47108 25.9357C9.33968 26.0797 9.36485 26.1796 9.51384 26.2728C9.70923 26.3952 9.90679 26.5142 10.1049 26.6323C10.499 26.8671 10.5579 27.1023 10.3264 27.4971C10.1909 27.7283 9.9921 27.9105 9.83082 28.1233C9.86677 28.2501 9.97151 28.3198 10.0611 28.3891C10.8084 28.9674 10.8884 29.7182 10.6636 30.5574C10.5265 31.0691 10.3009 31.5541 10.2015 32.0773C10.1182 32.5153 10.2246 32.8712 10.6073 33.1402C11.1451 33.5181 11.7424 33.7189 12.3968 33.7814C13.0466 33.8434 13.6954 33.8151 14.3458 33.8006C15.0794 33.7843 15.8107 33.8195 16.5189 34.0466C17.4987 34.3609 17.9832 34.9866 18.0872 35.9792C18.1757 36.8241 18.0149 37.649 17.9622 38.4826C17.9541 38.6096 17.934 38.7358 17.9154 38.8988C17.8137 38.8016 17.8381 38.7187 17.8411 38.6448C17.8722 37.8671 17.9643 37.0906 17.8727 36.3107C17.8392 36.0246 17.7839 35.7448 17.6887 35.473C17.4563 34.8096 16.9059 34.534 16.2727 34.3825C15.5284 34.2045 14.7701 34.2633 14.0171 34.3133C13.1203 34.3729 12.2259 34.4399 11.3434 34.1993C10.9735 34.0985 10.6227 33.956 10.2986 33.7516C9.56521 33.2893 9.2956 32.6695 9.45364 31.8273C9.55969 31.2621 9.80084 30.7329 9.90022 30.1663C9.97141 29.7604 9.93872 29.3972 9.56626 29.1199C9.37106 28.9746 9.19892 28.7946 9.03596 28.6133C8.72332 28.2653 8.73252 27.9646 9.03963 27.6143C9.12624 27.5155 9.23092 27.429 9.29403 27.2862C9.16074 27.1942 9.02638 27.1054 8.89636 27.0109C8.2632 26.5507 8.17394 25.9997 8.63666 25.3763C8.77223 25.1937 8.9242 25.0228 9.07257 24.8418C8.95828 24.6948 8.81653 24.6133 8.67651 24.5326C8.39265 24.3689 8.10323 24.2145 7.82033 24.0493C6.78749 23.446 6.58595 22.9164 6.93866 21.7096C7.17869 20.8883 7.70198 20.2181 8.2545 19.5733C8.88744 18.8347 9.61065 18.1832 10.3132 17.512C10.4733 17.3591 10.541 17.2139 10.5316 16.9777C10.4067 13.8417 11.3402 11.0359 13.2935 8.55673C14.5747 6.93053 16.1561 5.66076 18.0272 4.74558C19.5784 3.98684 21.2234 3.56033 22.9543 3.45279C25.2963 3.30728 27.5183 3.76424 29.6575 4.73197Z" fill="#B10000"></path>
</svg><style>@media (prefers-color-scheme: light) { :root { filter: none; } }
</style></svg>