<svg width="33" height="32" viewBox="0 0 33 32" fill="none" xmlns="http://www.w3.org/2000/svg">
<path d="M26.667 7H23.202L21.4982 4.445C21.407 4.30819 21.2833 4.196 21.1384 4.11838C20.9934 4.04076 20.8315 4.0001 20.667 4H12.667C12.5025 4.0001 12.3406 4.04076 12.1956 4.11838C12.0506 4.196 11.927 4.30819 11.8357 4.445L10.1307 7H6.66699C5.87134 7 5.10828 7.31607 4.54567 7.87868C3.98306 8.44129 3.66699 9.20435 3.66699 10V24C3.66699 24.7956 3.98306 25.5587 4.54567 26.1213C5.10828 26.6839 5.87134 27 6.66699 27H26.667C27.4626 27 28.2257 26.6839 28.7883 26.1213C29.3509 25.5587 29.667 24.7956 29.667 24V10C29.667 9.20435 29.3509 8.44129 28.7883 7.87868C28.2257 7.31607 27.4626 7 26.667 7ZM27.667 24C27.667 24.2652 27.5616 24.5196 27.3741 24.7071C27.1866 24.8946 26.9322 25 26.667 25H6.66699C6.40178 25 6.14742 24.8946 5.95989 24.7071C5.77235 24.5196 5.66699 24.2652 5.66699 24V10C5.66699 9.73478 5.77235 9.48043 5.95989 9.29289C6.14742 9.10536 6.40178 9 6.66699 9H10.667C10.8317 9.00011 10.9938 8.95954 11.1391 8.88191C11.2843 8.80428 11.4081 8.69199 11.4995 8.555L13.202 6H20.1307L21.8345 8.555C21.9259 8.69199 22.0497 8.80428 22.1949 8.88191C22.3402 8.95954 22.5023 9.00011 22.667 9H26.667C26.9322 9 27.1866 9.10536 27.3741 9.29289C27.5616 9.48043 27.667 9.73478 27.667 10V24ZM16.667 11C15.5792 11 14.5158 11.3226 13.6114 11.9269C12.7069 12.5313 12.0019 13.3902 11.5857 14.3952C11.1694 15.4002 11.0605 16.5061 11.2727 17.573C11.4849 18.6399 12.0087 19.6199 12.7779 20.3891C13.5471 21.1583 14.5271 21.6821 15.594 21.8943C16.6609 22.1065 17.7668 21.9976 18.7718 21.5813C19.7767 21.1651 20.6357 20.4601 21.2401 19.5556C21.8444 18.6512 22.167 17.5878 22.167 16.5C22.1653 15.0418 21.5853 13.6438 20.5543 12.6127C19.5232 11.5816 18.1252 11.0017 16.667 11ZM16.667 20C15.9748 20 15.2981 19.7947 14.7225 19.4101C14.1469 19.0256 13.6983 18.4789 13.4334 17.8394C13.1685 17.1999 13.0992 16.4961 13.2342 15.8172C13.3693 15.1383 13.7026 14.5146 14.1921 14.0251C14.6816 13.5356 15.3052 13.2023 15.9842 13.0673C16.6631 12.9322 17.3668 13.0015 18.0064 13.2664C18.6459 13.5313 19.1925 13.9799 19.5771 14.5555C19.9617 15.1311 20.167 15.8078 20.167 16.5C20.167 17.4283 19.7982 18.3185 19.1419 18.9749C18.4855 19.6313 17.5953 20 16.667 20Z" fill="#08BCA9"/>
</svg>
