<svg width="33" height="33" viewBox="0 0 33 33" fill="none" xmlns="http://www.w3.org/2000/svg">
<path d="M26.5 7.5H23.035L21.3312 4.945C21.24 4.80819 21.1164 4.696 20.9714 4.61838C20.8264 4.54076 20.6645 4.5001 20.5 4.5H12.5C12.3355 4.5001 12.1736 4.54076 12.0286 4.61838C11.8836 4.696 11.76 4.80819 11.6687 4.945L9.96375 7.5H6.5C5.70435 7.5 4.94129 7.81607 4.37868 8.37868C3.81607 8.94129 3.5 9.70435 3.5 10.5V24.5C3.5 25.2956 3.81607 26.0587 4.37868 26.6213C4.94129 27.1839 5.70435 27.5 6.5 27.5H26.5C27.2956 27.5 28.0587 27.1839 28.6213 26.6213C29.1839 26.0587 29.5 25.2956 29.5 24.5V10.5C29.5 9.70435 29.1839 8.94129 28.6213 8.37868C28.0587 7.81607 27.2956 7.5 26.5 7.5ZM27.5 24.5C27.5 24.7652 27.3946 25.0196 27.2071 25.2071C27.0196 25.3946 26.7652 25.5 26.5 25.5H6.5C6.23478 25.5 5.98043 25.3946 5.79289 25.2071C5.60536 25.0196 5.5 24.7652 5.5 24.5V10.5C5.5 10.2348 5.60536 9.98043 5.79289 9.79289C5.98043 9.60536 6.23478 9.5 6.5 9.5H10.5C10.6647 9.50011 10.8268 9.45954 10.9721 9.38191C11.1173 9.30428 11.2411 9.19199 11.3325 9.055L13.035 6.5H19.9638L21.6675 9.055C21.7589 9.19199 21.8827 9.30428 22.0279 9.38191C22.1732 9.45954 22.3353 9.50011 22.5 9.5H26.5C26.7652 9.5 27.0196 9.60536 27.2071 9.79289C27.3946 9.98043 27.5 10.2348 27.5 10.5V24.5ZM16.5 11.5C15.4122 11.5 14.3488 11.8226 13.4444 12.4269C12.5399 13.0313 11.8349 13.8902 11.4187 14.8952C11.0024 15.9002 10.8935 17.0061 11.1057 18.073C11.3179 19.1399 11.8417 20.1199 12.6109 20.8891C13.3801 21.6583 14.3601 22.1821 15.427 22.3943C16.4939 22.6065 17.5998 22.4976 18.6048 22.0813C19.6098 21.6651 20.4687 20.9601 21.0731 20.0556C21.6774 19.1512 22 18.0878 22 17C21.9983 15.5418 21.4184 14.1438 20.3873 13.1127C19.3562 12.0816 17.9582 11.5017 16.5 11.5ZM16.5 20.5C15.8078 20.5 15.1311 20.2947 14.5555 19.9101C13.9799 19.5256 13.5313 18.9789 13.2664 18.3394C13.0015 17.6999 12.9322 16.9961 13.0673 16.3172C13.2023 15.6383 13.5356 15.0146 14.0251 14.5251C14.5146 14.0356 15.1383 13.7023 15.8172 13.5673C16.4961 13.4322 17.1999 13.5015 17.8394 13.7664C18.4789 14.0313 19.0256 14.4799 19.4101 15.0555C19.7947 15.6311 20 16.3078 20 17C20 17.9283 19.6313 18.8185 18.9749 19.4749C18.3185 20.1313 17.4283 20.5 16.5 20.5Z" fill="#D10000"/>
</svg>
