<svg width="33" height="33" viewBox="0 0 33 33" fill="none" xmlns="http://www.w3.org/2000/svg">
<path d="M15.5 25.5H9.5C9.23478 25.5 8.98043 25.3946 8.79289 25.2071C8.60536 25.0195 8.5 24.7652 8.5 24.5C8.5 24.2347 8.60536 23.9804 8.79289 23.7928C8.98043 23.6053 9.23478 23.5 9.5 23.5H15.5C15.7652 23.5 16.0196 23.6053 16.2071 23.7928C16.3946 23.9804 16.5 24.2347 16.5 24.5C16.5 24.7652 16.3946 25.0195 16.2071 25.2071C16.0196 25.3946 15.7652 25.5 15.5 25.5ZM23.5 23.5H20.5C20.2348 23.5 19.9804 23.6053 19.7929 23.7928C19.6054 23.9804 19.5 24.2347 19.5 24.5C19.5 24.7652 19.6054 25.0195 19.7929 25.2071C19.9804 25.3946 20.2348 25.5 20.5 25.5H23.5C23.7652 25.5 24.0196 25.3946 24.2071 25.2071C24.3946 25.0195 24.5 24.7652 24.5 24.5C24.5 24.2347 24.3946 23.9804 24.2071 23.7928C24.0196 23.6053 23.7652 23.5 23.5 23.5ZM20.5 27.5H13.5C13.2348 27.5 12.9804 27.6053 12.7929 27.7928C12.6054 27.9804 12.5 28.2347 12.5 28.5C12.5 28.7652 12.6054 29.0195 12.7929 29.2071C12.9804 29.3946 13.2348 29.5 13.5 29.5H20.5C20.7652 29.5 21.0196 29.3946 21.2071 29.2071C21.3946 29.0195 21.5 28.7652 21.5 28.5C21.5 28.2347 21.3946 27.9804 21.2071 27.7928C21.0196 27.6053 20.7652 27.5 20.5 27.5ZM29.5 12C29.4974 14.5187 28.4956 16.9335 26.7146 18.7145C24.9336 20.4956 22.5187 21.4973 20 21.5H10C8.27609 21.5 6.62279 20.8151 5.40381 19.5961C4.18482 18.3772 3.5 16.7239 3.5 15C3.5 13.276 4.18482 11.6227 5.40381 10.4038C6.62279 9.18477 8.27609 8.49995 10 8.49995C10.3737 8.50027 10.7467 8.53205 11.115 8.59495C11.9125 6.52341 13.4096 4.79611 15.3467 3.71231C17.2839 2.62852 19.5392 2.25651 21.7219 2.66075C23.9045 3.06498 25.877 4.21999 27.2975 5.92566C28.7181 7.63133 29.4973 9.7802 29.5 12ZM27.5 12C27.492 10.0525 26.7276 8.18441 25.3681 6.78999C24.0087 5.39557 22.1605 4.58398 20.2139 4.52656C18.2673 4.46913 16.3746 5.17037 14.9353 6.48222C13.496 7.79408 12.6228 9.61388 12.5 11.5575C12.4924 11.6888 12.4591 11.8173 12.4019 11.9358C12.3446 12.0542 12.2646 12.1602 12.1664 12.2477C11.9681 12.4245 11.7077 12.5152 11.4425 12.5C11.1773 12.4847 10.929 12.3647 10.7522 12.1664C10.5755 11.9681 10.4848 11.7077 10.5 11.4425C10.5175 11.1375 10.5496 10.8362 10.5962 10.5387C10.3985 10.5133 10.1994 10.5004 10 10.5C8.80653 10.5 7.66193 10.9741 6.81802 11.818C5.97411 12.6619 5.5 13.8065 5.5 15C5.5 16.1934 5.97411 17.338 6.81802 18.1819C7.66193 19.0258 8.80653 19.5 10 19.5H20C21.9884 19.4976 23.8947 18.7067 25.3007 17.3007C26.7068 15.8947 27.4977 13.9884 27.5 12Z" fill="#D10000"/>
</svg>
