<svg width="33" height="32" viewBox="0 0 33 32" fill="none" xmlns="http://www.w3.org/2000/svg">
<path d="M15.5 25H9.5C9.23478 25 8.98043 24.8947 8.79289 24.7071C8.60536 24.5196 8.5 24.2652 8.5 24C8.5 23.7348 8.60536 23.4804 8.79289 23.2929C8.98043 23.1054 9.23478 23 9.5 23H15.5C15.7652 23 16.0196 23.1054 16.2071 23.2929C16.3946 23.4804 16.5 23.7348 16.5 24C16.5 24.2652 16.3946 24.5196 16.2071 24.7071C16.0196 24.8947 15.7652 25 15.5 25ZM23.5 23H20.5C20.2348 23 19.9804 23.1054 19.7929 23.2929C19.6054 23.4804 19.5 23.7348 19.5 24C19.5 24.2652 19.6054 24.5196 19.7929 24.7071C19.9804 24.8947 20.2348 25 20.5 25H23.5C23.7652 25 24.0196 24.8947 24.2071 24.7071C24.3946 24.5196 24.5 24.2652 24.5 24C24.5 23.7348 24.3946 23.4804 24.2071 23.2929C24.0196 23.1054 23.7652 23 23.5 23ZM20.5 27H13.5C13.2348 27 12.9804 27.1054 12.7929 27.2929C12.6054 27.4804 12.5 27.7348 12.5 28C12.5 28.2652 12.6054 28.5196 12.7929 28.7071C12.9804 28.8947 13.2348 29 13.5 29H20.5C20.7652 29 21.0196 28.8947 21.2071 28.7071C21.3946 28.5196 21.5 28.2652 21.5 28C21.5 27.7348 21.3946 27.4804 21.2071 27.2929C21.0196 27.1054 20.7652 27 20.5 27ZM29.5 11.5C29.4974 14.0188 28.4956 16.4336 26.7146 18.2146C24.9336 19.9956 22.5187 20.9974 20 21H10C8.27609 21 6.62279 20.3152 5.40381 19.0962C4.18482 17.8772 3.5 16.2239 3.5 14.5C3.5 12.7761 4.18482 11.1228 5.40381 9.90382C6.62279 8.68483 8.27609 8.00001 10 8.00001C10.3737 8.00033 10.7467 8.03211 11.115 8.09501C11.9125 6.02347 13.4096 4.29617 15.3467 3.21238C17.2839 2.12858 19.5392 1.75657 21.7219 2.16081C23.9045 2.56505 25.877 3.72005 27.2975 5.42572C28.7181 7.1314 29.4973 9.28026 29.5 11.5ZM27.5 11.5C27.492 9.55259 26.7276 7.68447 25.3681 6.29005C24.0087 4.89563 22.1605 4.08404 20.2139 4.02662C18.2673 3.96919 16.3746 4.67043 14.9353 5.98228C13.496 7.29414 12.6228 9.11394 12.5 11.0575C12.4924 11.1888 12.4591 11.3174 12.4019 11.4358C12.3446 11.5543 12.2646 11.6603 12.1664 11.7478C11.9681 11.9245 11.7077 12.0153 11.4425 12C11.1773 11.9848 10.929 11.8648 10.7522 11.6665C10.5755 11.4681 10.4848 11.2077 10.5 10.9425C10.5175 10.6375 10.5496 10.3363 10.5962 10.0388C10.3985 10.0134 10.1994 10.0004 10 10C8.80653 10 7.66193 10.4741 6.81802 11.318C5.97411 12.1619 5.5 13.3065 5.5 14.5C5.5 15.6935 5.97411 16.8381 6.81802 17.682C7.66193 18.5259 8.80653 19 10 19H20C21.9884 18.9977 23.8947 18.2068 25.3007 16.8008C26.7068 15.3947 27.4977 13.4884 27.5 11.5Z" fill="#DCC707"/>
</svg>
