<svg width="33" height="32" viewBox="0 0 33 32" fill="none" xmlns="http://www.w3.org/2000/svg">
<path d="M26.5 7H23.035L21.3312 4.445C21.24 4.30819 21.1164 4.196 20.9714 4.11838C20.8264 4.04076 20.6645 4.0001 20.5 4H12.5C12.3355 4.0001 12.1736 4.04076 12.0286 4.11838C11.8836 4.196 11.76 4.30819 11.6687 4.445L9.96375 7H6.5C5.70435 7 4.94129 7.31607 4.37868 7.87868C3.81607 8.44129 3.5 9.20435 3.5 10V24C3.5 24.7956 3.81607 25.5587 4.37868 26.1213C4.94129 26.6839 5.70435 27 6.5 27H26.5C27.2956 27 28.0587 26.6839 28.6213 26.1213C29.1839 25.5587 29.5 24.7956 29.5 24V10C29.5 9.20435 29.1839 8.44129 28.6213 7.87868C28.0587 7.31607 27.2956 7 26.5 7ZM27.5 24C27.5 24.2652 27.3946 24.5196 27.2071 24.7071C27.0196 24.8946 26.7652 25 26.5 25H6.5C6.23478 25 5.98043 24.8946 5.79289 24.7071C5.60536 24.5196 5.5 24.2652 5.5 24V10C5.5 9.73478 5.60536 9.48043 5.79289 9.29289C5.98043 9.10536 6.23478 9 6.5 9H10.5C10.6647 9.00011 10.8268 8.95954 10.9721 8.88191C11.1173 8.80428 11.2411 8.69199 11.3325 8.555L13.035 6H19.9638L21.6675 8.555C21.7589 8.69199 21.8827 8.80428 22.0279 8.88191C22.1732 8.95954 22.3353 9.00011 22.5 9H26.5C26.7652 9 27.0196 9.10536 27.2071 9.29289C27.3946 9.48043 27.5 9.73478 27.5 10V24ZM16.5 11C15.4122 11 14.3488 11.3226 13.4444 11.9269C12.5399 12.5313 11.8349 13.3902 11.4187 14.3952C11.0024 15.4002 10.8935 16.5061 11.1057 17.573C11.3179 18.6399 11.8417 19.6199 12.6109 20.3891C13.3801 21.1583 14.3601 21.6821 15.427 21.8943C16.4939 22.1065 17.5998 21.9976 18.6048 21.5813C19.6098 21.1651 20.4687 20.4601 21.0731 19.5556C21.6774 18.6512 22 17.5878 22 16.5C21.9983 15.0418 21.4184 13.6438 20.3873 12.6127C19.3562 11.5816 17.9582 11.0017 16.5 11ZM16.5 20C15.8078 20 15.1311 19.7947 14.5555 19.4101C13.9799 19.0256 13.5313 18.4789 13.2664 17.8394C13.0015 17.1999 12.9322 16.4961 13.0673 15.8172C13.2023 15.1383 13.5356 14.5146 14.0251 14.0251C14.5146 13.5356 15.1383 13.2023 15.8172 13.0673C16.4961 12.9322 17.1999 13.0015 17.8394 13.2664C18.4789 13.5313 19.0256 13.9799 19.4101 14.5555C19.7947 15.1311 20 15.8078 20 16.5C20 17.4283 19.6313 18.3185 18.9749 18.9749C18.3185 19.6313 17.4283 20 16.5 20Z" fill="#DCC707"/>
</svg>
