<svg width="159" height="46" viewBox="0 0 159 46" fill="none" xmlns="http://www.w3.org/2000/svg">
<path d="M29.6575 4.73197C33.1648 6.37747 35.3879 9.08238 36.564 12.6675C36.9995 13.9948 37.2963 15.3532 37.4016 16.742C37.5097 18.1672 37.3385 19.5739 36.9579 20.9557C36.5513 22.4324 35.9425 23.8292 35.2293 25.1828C34.4345 26.6911 33.6402 28.1996 32.8891 29.7293C32.5015 30.5188 32.3264 31.369 32.2143 32.2331C32.0317 33.6404 32.086 35.0479 32.2057 36.4559C32.2742 37.261 32.336 38.0667 32.3976 38.8723C32.4238 39.2146 32.2802 39.3722 31.9356 39.3656C30.3059 39.3347 28.6762 39.3086 27.0474 39.2412C26.4498 39.2165 25.8515 39.2184 25.2534 39.1988C23.7063 39.1479 22.1582 39.1301 20.6107 39.0927C19.8559 39.0745 19.1015 39.0424 18.3471 39.0151C18.2843 39.0129 18.222 38.9994 18.1605 38.9719C19.1756 38.8645 20.1982 38.9316 21.2297 38.8337C21.1056 38.2613 20.9851 37.7101 20.9029 37.1518C20.7495 36.1107 20.6565 35.065 20.6005 34.0142C20.5634 33.3164 20.5624 32.6183 20.5367 31.9206C20.5227 31.5393 20.5423 31.1558 20.5685 30.7747C20.5826 30.5695 20.4993 30.4519 20.3344 30.3438C19.4622 29.7721 18.6353 29.1409 17.8275 28.4844C17.6593 28.3477 17.5827 28.2109 17.6398 27.9909C17.7099 27.7211 17.7345 27.4398 17.8046 27.1701C17.8566 26.9703 17.8123 26.8659 17.6134 26.7777C17.0449 26.5256 16.7 26.0818 16.5538 25.488C16.5375 25.4216 16.4982 25.3491 16.5854 25.2593C16.7939 25.9446 17.2161 26.3259 17.9599 26.1237C18.4283 25.9964 18.6628 25.5643 18.636 25.0251C18.6123 24.5481 18.3068 24.1731 17.848 24.0704C17.554 24.0046 17.2844 24.0733 17.0402 24.2429C16.799 24.4105 16.671 24.6529 16.6092 24.9888C16.4019 24.4671 17.0932 23.5919 17.8196 23.3538C18.7897 23.0357 19.8535 23.6238 20.1209 24.6349C20.282 25.2442 20.1574 25.8016 19.756 26.2935C19.3498 26.7912 18.792 26.9589 18.1357 26.9621C18.1967 27.2738 18.2499 27.5602 18.3103 27.8451C18.3303 27.9396 18.4292 27.9503 18.5022 27.98C19.5328 28.4003 20.5221 28.9035 21.5102 29.4109C21.8486 29.5846 22.0402 29.8108 22.0499 30.1977C22.0783 31.323 22.0942 32.4483 22.0423 33.5728C22.0041 34.402 21.941 35.2301 21.8506 36.056C21.7569 36.9114 21.6288 37.7606 21.4323 38.5993C21.375 38.8437 21.3842 38.8609 21.63 38.8538C22.4372 38.8304 23.2441 38.7967 24.0514 38.7784C24.3023 38.7727 24.2625 38.6182 24.2353 38.4762C24.1216 37.8835 24.0475 37.2853 23.9734 36.6872C23.8668 35.8262 23.814 34.9606 23.744 34.0962C23.6074 32.4086 23.5934 30.7181 23.5945 29.0275C23.5951 28.0425 23.6204 27.0564 23.6756 26.0729C23.7594 24.5771 23.8653 23.082 24.096 21.5988C24.1378 21.3302 24.1599 21.0576 24.2201 20.7932C24.2601 20.6176 24.2076 20.5439 24.0467 20.4792C23.3953 20.217 23.0448 19.715 22.9083 19.0519C22.9039 19.0305 22.9034 19.0078 22.9052 18.9861C22.9063 18.9724 22.9152 18.9594 22.9419 18.8936C23.0847 19.3016 23.2481 19.6544 23.6668 19.7966C24.0518 19.9273 24.4969 19.8209 24.7496 19.5272C25.1624 19.0473 25.0823 18.262 24.5825 17.916C24.2596 17.6924 23.9142 17.6779 23.5615 17.8361C23.215 17.9915 23.0658 18.3014 22.9722 18.6342C22.9056 18.6238 22.9032 18.5929 22.9064 18.5652C23.0156 17.6185 23.8712 16.9057 24.8344 16.9582C25.7996 17.0108 26.5389 17.8078 26.5653 18.7684C26.5881 19.5979 25.8843 20.65 24.7158 20.6056C24.5093 20.5978 24.4758 20.681 24.5076 20.8577C24.6936 21.892 24.806 22.9352 24.9038 23.9809C25.1465 26.5775 25.1609 29.1801 25.1044 31.7831C25.0664 33.5314 24.9325 35.2756 24.7127 37.0119C24.6473 37.5285 24.5559 38.0422 24.4662 38.5556C24.439 38.7114 24.4771 38.775 24.6428 38.7694C25.4648 38.7417 26.2868 38.7161 27.1089 38.6956C27.272 38.6915 27.3202 38.6207 27.2936 38.4737C27.1285 37.5624 27.0133 36.6441 26.9147 35.7241C26.8536 35.1543 26.8039 34.5829 26.7694 34.011C26.6695 32.3519 26.6123 30.6909 26.6466 29.0289C26.6651 28.1329 26.6751 27.236 26.7496 26.3411C26.7746 26.0401 26.908 25.8496 27.1675 25.7168C28.1628 25.2076 29.1625 24.7071 30.19 24.2636C30.3811 24.1811 30.4957 24.0878 30.5015 23.8657C30.5064 23.6766 30.5476 23.4854 30.5968 23.3014C30.6388 23.1443 30.5839 23.0786 30.4409 23.0211C29.8179 22.7707 29.4584 22.3002 29.3022 21.667C29.2851 21.5978 29.2492 21.5292 29.3259 21.4329C29.4414 21.8469 29.6335 22.1854 30.0528 22.3342C30.2476 22.4033 30.4458 22.4154 30.6468 22.3552C31.1382 22.2079 31.4082 21.8064 31.3859 21.253C31.3663 20.7683 31.0597 20.3918 30.614 20.2889C30.2993 20.2162 30.0222 20.2889 29.7662 20.4684C29.5142 20.645 29.4194 20.9164 29.3435 21.2032C29.2561 21.1624 29.2743 21.1071 29.2812 21.0621C29.425 20.1252 30.2454 19.449 31.1977 19.4808C32.0896 19.5105 32.8654 20.2697 32.9327 21.1786C33.0028 22.1271 32.3582 22.9535 31.414 23.1244C31.3333 23.1391 31.2521 23.1552 31.1705 23.1601C30.8644 23.1784 30.8636 23.1768 30.907 23.4648C30.9453 23.7189 30.9761 23.9746 31.0281 24.2261C31.064 24.3999 31.0149 24.5212 30.8784 24.6313C30.0971 25.2613 29.2874 25.8547 28.4525 26.413C28.2108 26.5747 28.1013 26.7396 28.1204 27.0387C28.1676 27.7794 28.2049 28.523 28.1924 29.2646C28.175 30.3011 28.2015 31.338 28.1447 32.3744C28.1008 33.1742 28.0586 33.9738 28.0015 34.7729C27.9162 35.9679 27.7613 37.1542 27.5677 38.3363C27.5502 38.4431 27.5173 38.55 27.5551 38.6734C27.9951 38.6734 28.4343 38.682 28.8729 38.6715C29.6727 38.6524 30.4721 38.6149 31.272 38.6011C31.4873 38.5973 31.5419 38.5255 31.5199 38.3255C31.4125 37.3468 31.2979 36.3684 31.2181 35.3873C31.1377 34.398 31.1199 33.406 31.1926 32.4136C31.2442 31.7083 31.3414 31.0112 31.5317 30.3288C31.8182 29.3013 32.3143 28.3591 32.7736 27.4022C33.5521 25.7801 34.3869 24.1831 35.0434 22.5063C35.5505 21.2111 35.9301 19.8826 36.0391 18.4948C36.12 17.4649 36.0288 16.4426 35.8313 15.4245C35.4865 13.6477 34.928 11.9524 33.9778 10.3933C32.9493 8.70588 31.5497 7.39959 29.7953 6.46195C27.653 5.31697 25.3554 4.81274 22.926 4.94266C20.6058 5.06675 18.5215 5.86395 16.6723 7.23533C14.2956 8.9978 12.7475 11.3038 12.0916 14.1676C11.879 15.0958 11.7959 16.0411 11.8625 16.994C11.8996 17.5257 11.7428 17.9683 11.3319 18.3363C10.5804 19.0095 9.80677 19.6615 9.13186 20.413C8.63972 20.9611 8.18326 21.5317 7.97506 22.2544C7.85728 22.6633 7.89676 22.7926 8.25219 23.0392C8.67989 23.3361 9.16492 23.5465 9.56884 23.8786C9.68883 23.9773 9.80744 24.0816 9.90718 24.1993C10.207 24.5531 10.2246 24.9267 9.97862 25.3191C9.83619 25.5463 9.65032 25.7392 9.47108 25.9357C9.33968 26.0797 9.36485 26.1796 9.51384 26.2728C9.70923 26.3952 9.90679 26.5142 10.1049 26.6323C10.499 26.8671 10.5579 27.1023 10.3264 27.4971C10.1909 27.7283 9.9921 27.9105 9.83082 28.1233C9.86677 28.2501 9.97151 28.3198 10.0611 28.3891C10.8084 28.9674 10.8884 29.7182 10.6636 30.5574C10.5265 31.0691 10.3009 31.5541 10.2015 32.0773C10.1182 32.5153 10.2246 32.8712 10.6073 33.1402C11.1451 33.5181 11.7424 33.7189 12.3968 33.7814C13.0466 33.8434 13.6954 33.8151 14.3458 33.8006C15.0794 33.7843 15.8107 33.8195 16.5189 34.0466C17.4987 34.3609 17.9832 34.9866 18.0872 35.9792C18.1757 36.8241 18.0149 37.649 17.9622 38.4826C17.9541 38.6096 17.934 38.7358 17.9154 38.8988C17.8137 38.8016 17.8381 38.7187 17.8411 38.6448C17.8722 37.8671 17.9643 37.0906 17.8727 36.3107C17.8392 36.0246 17.7839 35.7448 17.6887 35.473C17.4563 34.8096 16.9059 34.534 16.2727 34.3825C15.5284 34.2045 14.7701 34.2633 14.0171 34.3133C13.1203 34.3729 12.2259 34.4399 11.3434 34.1993C10.9735 34.0985 10.6227 33.956 10.2986 33.7516C9.56521 33.2893 9.2956 32.6695 9.45364 31.8273C9.55969 31.2621 9.80084 30.7329 9.90022 30.1663C9.97141 29.7604 9.93872 29.3972 9.56626 29.1199C9.37106 28.9746 9.19892 28.7946 9.03596 28.6133C8.72332 28.2653 8.73252 27.9646 9.03963 27.6143C9.12624 27.5155 9.23092 27.429 9.29403 27.2862C9.16074 27.1942 9.02638 27.1054 8.89636 27.0109C8.2632 26.5507 8.17394 25.9997 8.63666 25.3763C8.77223 25.1937 8.9242 25.0228 9.07257 24.8418C8.95828 24.6948 8.81653 24.6133 8.67651 24.5326C8.39265 24.3689 8.10323 24.2145 7.82033 24.0493C6.78749 23.446 6.58595 22.9164 6.93866 21.7096C7.17869 20.8883 7.70198 20.2181 8.2545 19.5733C8.88744 18.8347 9.61065 18.1832 10.3132 17.512C10.4733 17.3591 10.541 17.2139 10.5316 16.9777C10.4067 13.8417 11.3402 11.0359 13.2935 8.55673C14.5747 6.93053 16.1561 5.66076 18.0272 4.74558C19.5784 3.98684 21.2234 3.56033 22.9543 3.45279C25.2963 3.30728 27.5183 3.76424 29.6575 4.73197Z" fill="#B10000"/>
<rect x="45.9805" y="3.22559" width="1.41245" height="39.5485" rx="0.706223" fill="black"/>
<path d="M61.2089 8.84743C61.1407 8.15959 60.8479 7.62525 60.3306 7.24438C59.8133 6.86351 59.1113 6.67308 58.2245 6.67308C57.6219 6.67308 57.1131 6.75835 56.6982 6.92889C56.2832 7.09374 55.9649 7.32396 55.7432 7.61956C55.5272 7.91516 55.4191 8.25055 55.4191 8.62573C55.4078 8.93838 55.4731 9.21124 55.6153 9.44431C55.7631 9.67737 55.9649 9.87917 56.2207 10.0497C56.4765 10.2146 56.7721 10.3595 57.1075 10.4846C57.4428 10.604 57.801 10.7063 58.1818 10.7915L59.7508 11.1667C60.5125 11.3373 61.2117 11.5646 61.8484 11.8489C62.4851 12.1331 63.0365 12.4827 63.5026 12.8977C63.9687 13.3126 64.3297 13.8015 64.5855 14.3643C64.847 14.9271 64.9806 15.5723 64.9863 16.2999C64.9806 17.3686 64.7077 18.2952 64.1677 19.0796C63.6333 19.8584 62.8602 20.4638 61.8484 20.8959C60.8422 21.3222 59.6286 21.5354 58.2074 21.5354C56.7977 21.5354 55.5698 21.3194 54.5238 20.8873C53.4836 20.4553 52.6707 19.8158 52.0852 18.9688C51.5053 18.1161 51.2012 17.0616 51.1728 15.8053H54.7455C54.7853 16.3908 54.953 16.8797 55.2486 17.2719C55.5499 17.6585 55.9507 17.9512 56.4509 18.1502C56.9568 18.3435 57.5281 18.4401 58.1648 18.4401C58.7901 18.4401 59.333 18.3492 59.7934 18.1673C60.2595 17.9854 60.6205 17.7324 60.8763 17.4084C61.1321 17.0844 61.26 16.712 61.26 16.2914C61.26 15.8991 61.1435 15.5694 60.9104 15.3022C60.683 15.0351 60.3477 14.8077 59.9043 14.6201C59.4666 14.4325 58.9294 14.262 58.2927 14.1085L56.3912 13.631C54.9189 13.2729 53.7564 12.7129 52.9037 11.9512C52.051 11.1895 51.6275 10.1634 51.6332 8.87301C51.6275 7.81568 51.9089 6.89194 52.4774 6.10178C53.0515 5.31163 53.8388 4.69486 54.8393 4.25146C55.8398 3.80806 56.9767 3.58637 58.2501 3.58637C59.5461 3.58637 60.6774 3.80806 61.6437 4.25146C62.6158 4.69486 63.3718 5.31163 63.9119 6.10178C64.4519 6.89194 64.7305 7.80715 64.7475 8.84743H61.2089ZM81.7972 9.93886H78.0624C77.9942 9.45567 77.8549 9.02649 77.6446 8.65131C77.4343 8.27044 77.1643 7.94642 76.8346 7.67925C76.5049 7.41207 76.124 7.20743 75.692 7.06532C75.2656 6.9232 74.8023 6.85215 74.3021 6.85215C73.3982 6.85215 72.6109 7.07669 71.9402 7.52577C71.2694 7.96916 70.7492 8.6172 70.3797 9.46989C70.0102 10.3169 69.8255 11.3458 69.8255 12.5566C69.8255 13.8015 70.0102 14.8475 70.3797 15.6945C70.7549 16.5415 71.2779 17.181 71.9487 17.613C72.6195 18.045 73.3954 18.2611 74.2765 18.2611C74.7711 18.2611 75.2287 18.1957 75.6493 18.0649C76.0757 17.9342 76.4537 17.7438 76.7834 17.4936C77.1131 17.2378 77.386 16.928 77.602 16.5642C77.8237 16.2004 77.9772 15.7854 78.0624 15.3193L81.7972 15.3364C81.7005 16.1379 81.459 16.911 81.0724 17.6557C80.6915 18.3946 80.1771 19.0569 79.529 19.6424C78.8867 20.2222 78.1193 20.6827 77.2268 21.0238C76.34 21.3591 75.3367 21.5268 74.2168 21.5268C72.6593 21.5268 71.2665 21.1744 70.0387 20.4695C68.8165 19.7646 67.8501 18.7442 67.1395 17.4084C66.4347 16.0725 66.0822 14.4552 66.0822 12.5566C66.0822 10.6523 66.4403 9.03217 67.1566 7.6963C67.8729 6.36043 68.8449 5.34289 70.0728 4.64369C71.3006 3.93881 72.682 3.58637 74.2168 3.58637C75.2287 3.58637 76.1666 3.72848 77.0307 4.01271C77.9004 4.29694 78.6707 4.71191 79.3415 5.25763C80.0122 5.79766 80.5579 6.45991 80.9786 7.24438C81.4049 8.02885 81.6778 8.92701 81.7972 9.93886ZM83.3642 21.2881V3.82512H95.1313V6.8692H87.0564V11.0303H94.5259V14.0744H87.0564V18.244H95.1654V21.2881H83.3642ZM111.593 3.82512V21.2881H108.404L100.806 10.297H100.678V21.2881H96.9861V3.82512H100.226L107.764 14.8077H107.918V3.82512H111.593ZM117.255 3.82512V21.2881H113.563V3.82512H117.255ZM129.998 3.82512H133.69V15.1658C133.69 16.4392 133.386 17.5533 132.778 18.5083C132.175 19.4633 131.331 20.208 130.246 20.7424C129.16 21.271 127.895 21.5354 126.451 21.5354C125.002 21.5354 123.734 21.271 122.648 20.7424C121.562 20.208 120.718 19.4633 120.116 18.5083C119.513 17.5533 119.212 16.4392 119.212 15.1658V3.82512H122.904V14.8503C122.904 15.5154 123.049 16.1066 123.339 16.6239C123.634 17.1412 124.049 17.5476 124.584 17.8432C125.118 18.1388 125.741 18.2866 126.451 18.2866C127.167 18.2866 127.79 18.1388 128.319 17.8432C128.853 17.5476 129.265 17.1412 129.555 16.6239C129.851 16.1066 129.998 15.5154 129.998 14.8503V3.82512ZM135.46 21.2881V19.0967L144.174 6.8692H135.443V3.82512H148.813V6.01651L140.09 18.244H148.83V21.2881H135.46Z" fill="#B10000"/>
<path d="M51.557 28.5757V33.7119H50.782V28.5757H51.557ZM52.1144 29.2428V28.5757H56.0895V29.2428H54.4869V33.7119H53.7145V29.2428H52.1144ZM59.864 33.7119H58.2013V28.5757H59.9167C60.4199 28.5757 60.8521 28.6786 61.2132 28.8842C61.5744 29.0882 61.8511 29.3816 62.0433 29.7645C62.2373 30.1457 62.3343 30.603 62.3343 31.1363C62.3343 31.6713 62.2365 32.1311 62.0408 32.5156C61.8469 32.9002 61.566 33.1961 61.1982 33.4034C60.8304 33.6091 60.3856 33.7119 59.864 33.7119ZM58.9762 33.0348H59.8214C60.2126 33.0348 60.5378 32.9612 60.7969 32.8141C61.0561 32.6653 61.25 32.4504 61.3788 32.1696C61.5075 31.887 61.5719 31.5426 61.5719 31.1363C61.5719 30.7334 61.5075 30.3915 61.3788 30.1106C61.2517 29.8297 61.0619 29.6165 60.8095 29.4711C60.557 29.3256 60.2435 29.2529 59.869 29.2529H58.9762V33.0348ZM63.7551 28.5757V33.7119H62.9801V28.5757H63.7551ZM65.0147 28.5757L66.4442 32.7589H66.5019L67.9314 28.5757H68.769L66.9207 33.7119H66.0254L64.1771 28.5757H65.0147ZM69.9679 28.5757V33.7119H69.193V28.5757H69.9679ZM73.58 29.925C73.5532 29.6876 73.4429 29.5037 73.2489 29.3733C73.055 29.2412 72.8109 29.1751 72.5166 29.1751C72.306 29.1751 72.1237 29.2086 71.9699 29.2754C71.8161 29.3407 71.6965 29.4309 71.6113 29.5463C71.5277 29.66 71.4859 29.7896 71.4859 29.935C71.4859 30.0571 71.5143 30.1624 71.5711 30.251C71.6297 30.3396 71.7057 30.414 71.7994 30.4742C71.8947 30.5327 71.9966 30.5821 72.1053 30.6222C72.214 30.6606 72.3185 30.6924 72.4188 30.7175L72.9204 30.8479C73.0842 30.888 73.2523 30.9424 73.4245 31.0109C73.5967 31.0795 73.7564 31.1697 73.9035 31.2818C74.0506 31.3938 74.1693 31.5326 74.2596 31.6981C74.3516 31.8636 74.3975 32.0617 74.3975 32.2924C74.3975 32.5834 74.3223 32.8417 74.1718 33.0674C74.023 33.2931 73.8065 33.4712 73.5223 33.6016C73.2397 33.732 72.8978 33.7972 72.4966 33.7972C72.112 33.7972 71.7793 33.7362 71.4984 33.6141C71.2175 33.4921 70.9977 33.319 70.8388 33.095C70.68 32.8693 70.5922 32.6018 70.5755 32.2924H71.353C71.368 32.478 71.4282 32.6327 71.5335 32.7564C71.6405 32.8785 71.7768 32.9696 71.9423 33.0298C72.1095 33.0883 72.2926 33.1175 72.4915 33.1175C72.7106 33.1175 72.9053 33.0833 73.0759 33.0147C73.2481 32.9445 73.3835 32.8475 73.4822 32.7238C73.5808 32.5984 73.6301 32.4521 73.6301 32.2849C73.6301 32.1328 73.5867 32.0082 73.4997 31.9112C73.4144 31.8143 73.2982 31.734 73.1511 31.6705C73.0057 31.607 72.841 31.5509 72.6571 31.5025L72.0501 31.3369C71.6389 31.2249 71.3128 31.0602 71.0721 30.8429C70.833 30.6255 70.7134 30.338 70.7134 29.9802C70.7134 29.6842 70.7937 29.4259 70.9542 29.2052C71.1147 28.9845 71.3321 28.8132 71.6063 28.6911C71.8804 28.5674 72.1898 28.5055 72.5342 28.5055C72.8819 28.5055 73.1887 28.5666 73.4546 28.6886C73.7221 28.8107 73.9327 28.9787 74.0866 29.1927C74.2404 29.405 74.3206 29.6491 74.3273 29.925H73.58ZM75.7807 28.5757V33.7119H75.0058V28.5757H75.7807ZM81.053 31.1438C81.053 31.6922 80.9527 32.1637 80.7521 32.5583C80.5514 32.9512 80.2764 33.2538 79.927 33.4661C79.5792 33.6768 79.1838 33.7821 78.7407 33.7821C78.296 33.7821 77.8989 33.6768 77.5495 33.4661C77.2017 33.2538 76.9275 32.9504 76.7269 32.5558C76.5263 32.1612 76.4259 31.6906 76.4259 31.1438C76.4259 30.5954 76.5263 30.1248 76.7269 29.7319C76.9275 29.3373 77.2017 29.0347 77.5495 28.824C77.8989 28.6117 78.296 28.5055 78.7407 28.5055C79.1838 28.5055 79.5792 28.6117 79.927 28.824C80.2764 29.0347 80.5514 29.3373 80.7521 29.7319C80.9527 30.1248 81.053 30.5954 81.053 31.1438ZM80.2856 31.1438C80.2856 30.7258 80.2179 30.3739 80.0825 30.088C79.9487 29.8004 79.7648 29.5831 79.5307 29.436C79.2983 29.2872 79.035 29.2128 78.7407 29.2128C78.4448 29.2128 78.1806 29.2872 77.9482 29.436C77.7158 29.5831 77.5319 29.8004 77.3965 30.088C77.2627 30.3739 77.1959 30.7258 77.1959 31.1438C77.1959 31.5618 77.2627 31.9146 77.3965 32.2022C77.5319 32.4881 77.7158 32.7054 77.9482 32.8542C78.1806 33.0013 78.4448 33.0749 78.7407 33.0749C79.035 33.0749 79.2983 33.0013 79.5307 32.8542C79.7648 32.7054 79.9487 32.4881 80.0825 32.2022C80.2179 31.9146 80.2856 31.5618 80.2856 31.1438ZM85.8469 28.5757V33.7119H85.1347L82.524 29.9451H82.4763V33.7119H81.7014V28.5757H82.4186L85.0319 32.3476H85.0795V28.5757H85.8469ZM92.6723 31.1438C92.6723 31.6922 92.572 32.1637 92.3714 32.5583C92.1707 32.9512 91.8957 33.2538 91.5463 33.4661C91.1985 33.6768 90.8031 33.7821 90.36 33.7821C89.9153 33.7821 89.5182 33.6768 89.1688 33.4661C88.821 33.2538 88.5468 32.9504 88.3462 32.5558C88.1456 32.1612 88.0452 31.6906 88.0452 31.1438C88.0452 30.5954 88.1456 30.1248 88.3462 29.7319C88.5468 29.3373 88.821 29.0347 89.1688 28.824C89.5182 28.6117 89.9153 28.5055 90.36 28.5055C90.8031 28.5055 91.1985 28.6117 91.5463 28.824C91.8957 29.0347 92.1707 29.3373 92.3714 29.7319C92.572 30.1248 92.6723 30.5954 92.6723 31.1438ZM91.9049 31.1438C91.9049 30.7258 91.8372 30.3739 91.7018 30.088C91.568 29.8004 91.3841 29.5831 91.15 29.436C90.9176 29.2872 90.6543 29.2128 90.36 29.2128C90.0641 29.2128 89.7999 29.2872 89.5675 29.436C89.3351 29.5831 89.1512 29.8004 89.0158 30.088C88.882 30.3739 88.8152 30.7258 88.8152 31.1438C88.8152 31.5618 88.882 31.9146 89.0158 32.2022C89.1512 32.4881 89.3351 32.7054 89.5675 32.8542C89.7999 33.0013 90.0641 33.0749 90.36 33.0749C90.6543 33.0749 90.9176 33.0013 91.15 32.8542C91.3841 32.7054 91.568 32.4881 91.7018 32.2022C91.8372 31.9146 91.9049 31.5618 91.9049 31.1438ZM93.3207 33.7119V28.5757H96.5057V29.2428H94.0956V30.8078H96.2775V31.4724H94.0956V33.7119H93.3207ZM50.782 37.5757H51.7225L53.3577 41.5683H53.4178L55.053 37.5757H55.9935V42.7119H55.2561V38.9952H55.2085L53.6937 42.7044H53.0818L51.567 38.9927H51.5194V42.7119H50.782V37.5757ZM57.2362 42.7119H56.4136L58.2619 37.5757H59.1572L61.0056 42.7119H60.183L58.7309 38.5087H58.6908L57.2362 42.7119ZM57.3741 40.7006H60.0425V41.3526H57.3741V40.7006ZM61.4295 42.7119V37.5757H62.2044V39.8078H64.765V37.5757H65.5424V42.7119H64.765V40.4724H62.2044V42.7119H61.4295ZM66.787 42.7119H65.9644L67.8128 37.5757H68.7081L70.5564 42.7119H69.7338L68.2817 38.5087H68.2416L66.787 42.7119ZM66.925 40.7006H69.5934V41.3526H66.925V40.7006ZM70.9803 42.7119V37.5757H72.8111C73.2107 37.5757 73.5417 37.6485 73.8042 37.7939C74.0667 37.9394 74.2631 38.1384 74.3935 38.3908C74.524 38.6416 74.5892 38.9242 74.5892 39.2385C74.5892 39.5545 74.5231 39.8387 74.391 40.0912C74.2606 40.342 74.0633 40.5409 73.7992 40.688C73.5367 40.8335 73.2065 40.9062 72.8086 40.9062H71.5496V40.2492H72.7383C72.9908 40.2492 73.1956 40.2057 73.3528 40.1188C73.5099 40.0301 73.6253 39.9098 73.6989 39.7576C73.7724 39.6055 73.8092 39.4324 73.8092 39.2385C73.8092 39.0445 73.7724 38.8723 73.6989 38.7219C73.6253 38.5714 73.5091 38.4535 73.3503 38.3682C73.1931 38.283 72.9858 38.2403 72.7283 38.2403H71.7552V42.7119H70.9803ZM75.0689 42.7119H74.2463L76.0946 37.5757H76.9899L78.8382 42.7119H78.0156L76.5636 38.5087H76.5235L75.0689 42.7119ZM75.2068 40.7006H77.8752V41.3526H75.2068V40.7006ZM78.4019 38.2428V37.5757H82.377V38.2428H80.7744V42.7119H80.002V38.2428H78.4019ZM82.9375 42.7119V37.5757H84.7683C85.1662 37.5757 85.4964 37.6443 85.7589 37.7814C86.0231 37.9185 86.2204 38.1083 86.3508 38.3507C86.4812 38.5914 86.5464 38.8698 86.5464 39.1858C86.5464 39.5001 86.4804 39.7768 86.3483 40.0159C86.2179 40.2533 86.0206 40.4381 85.7564 40.5702C85.4939 40.7023 85.1637 40.7683 84.7658 40.7683H83.3789V40.1012H84.6956C84.9464 40.1012 85.1503 40.0652 85.3075 39.9934C85.4663 39.9215 85.5825 39.817 85.6561 39.6799C85.7297 39.5428 85.7664 39.3781 85.7664 39.1858C85.7664 38.9919 85.7288 38.8238 85.6536 38.6817C85.58 38.5396 85.4638 38.4309 85.305 38.3557C85.1478 38.2788 84.9413 38.2403 84.6855 38.2403H83.7125V42.7119H82.9375ZM85.473 40.3946L86.742 42.7119H85.8592L84.6153 40.3946H85.473ZM87.6054 42.7119H86.7828L88.6312 37.5757H89.5265L91.3748 42.7119H90.5522L89.1001 38.5087H89.06L87.6054 42.7119ZM87.7434 40.7006H90.4118V41.3526H87.7434V40.7006ZM96.6528 37.5757H97.4303V40.9539C97.4303 41.3133 97.3458 41.6318 97.177 41.9094C97.0081 42.1853 96.7707 42.4026 96.4647 42.5614C96.1588 42.7186 95.8001 42.7972 95.3888 42.7972C94.9792 42.7972 94.6214 42.7186 94.3155 42.5614C94.0095 42.4026 93.7721 42.1853 93.6032 41.9094C93.4343 41.6318 93.3499 41.3133 93.3499 40.9539V37.5757H94.1249V40.8912C94.1249 41.1236 94.1759 41.3301 94.2778 41.5106C94.3815 41.6912 94.5278 41.8333 94.7167 41.937C94.9056 42.039 95.1297 42.09 95.3888 42.09C95.6497 42.09 95.8745 42.039 96.0635 41.937C96.2541 41.8333 96.3995 41.6912 96.4998 41.5106C96.6018 41.3301 96.6528 41.1236 96.6528 40.8912V37.5757ZM102.385 37.5757V42.7119H101.672L99.0617 38.9451H99.0141V42.7119H98.2391V37.5757H98.9564L101.57 41.3476H101.617V37.5757H102.385ZM103.972 37.5757V42.7119H103.197V37.5757H103.972ZM105.232 37.5757L106.661 41.7589H106.719L108.149 37.5757H108.986L107.138 42.7119H106.243L104.394 37.5757H105.232ZM109.41 42.7119V37.5757H112.63V38.2428H110.185V39.8078H112.462V40.4724H110.185V42.0448H112.66V42.7119H109.41ZM113.348 42.7119V37.5757H115.178C115.576 37.5757 115.907 37.6443 116.169 37.7814C116.433 37.9185 116.63 38.1083 116.761 38.3507C116.891 38.5914 116.956 38.8698 116.956 39.1858C116.956 39.5001 116.89 39.7768 116.758 40.0159C116.628 40.2533 116.431 40.4381 116.166 40.5702C115.904 40.7023 115.574 40.7683 115.176 40.7683H113.789V40.1012H115.106C115.356 40.1012 115.56 40.0652 115.718 39.9934C115.876 39.9215 115.993 39.817 116.066 39.6799C116.14 39.5428 116.177 39.3781 116.177 39.1858C116.177 38.9919 116.139 38.8238 116.064 38.6817C115.99 38.5396 115.874 38.4309 115.715 38.3557C115.558 38.2788 115.351 38.2403 115.096 38.2403H114.123V42.7119H113.348ZM115.883 40.3946L117.152 42.7119H116.269L115.025 40.3946H115.883ZM120.383 38.925C120.356 38.6876 120.246 38.5037 120.052 38.3733C119.858 38.2412 119.614 38.1751 119.32 38.1751C119.109 38.1751 118.927 38.2086 118.773 38.2754C118.619 38.3407 118.5 38.4309 118.414 38.5463C118.331 38.66 118.289 38.7896 118.289 38.935C118.289 39.0571 118.317 39.1624 118.374 39.251C118.433 39.3396 118.509 39.414 118.602 39.4742C118.698 39.5327 118.8 39.5821 118.908 39.6222C119.017 39.6606 119.121 39.6924 119.222 39.7175L119.723 39.8479C119.887 39.888 120.055 39.9424 120.227 40.0109C120.4 40.0795 120.559 40.1697 120.706 40.2818C120.854 40.3938 120.972 40.5326 121.063 40.6981C121.155 40.8636 121.201 41.0617 121.201 41.2924C121.201 41.5834 121.125 41.8417 120.975 42.0674C120.826 42.2931 120.61 42.4712 120.325 42.6016C120.043 42.732 119.701 42.7972 119.3 42.7972C118.915 42.7972 118.582 42.7362 118.301 42.6141C118.021 42.4921 117.801 42.319 117.642 42.095C117.483 41.8693 117.395 41.6018 117.379 41.2924H118.156C118.171 41.478 118.231 41.6327 118.337 41.7564C118.444 41.8785 118.58 41.9696 118.745 42.0298C118.912 42.0883 119.096 42.1175 119.295 42.1175C119.514 42.1175 119.708 42.0833 119.879 42.0147C120.051 41.9445 120.187 41.8475 120.285 41.7238C120.384 41.5984 120.433 41.4521 120.433 41.2849C120.433 41.1328 120.39 41.0082 120.303 40.9112C120.217 40.8143 120.101 40.734 119.954 40.6705C119.809 40.607 119.644 40.5509 119.46 40.5025L118.853 40.3369C118.442 40.2249 118.116 40.0602 117.875 39.8429C117.636 39.6255 117.516 39.338 117.516 38.9802C117.516 38.6842 117.597 38.4259 117.757 38.2052C117.918 37.9845 118.135 37.8132 118.409 37.6911C118.683 37.5674 118.993 37.5055 119.337 37.5055C119.685 37.5055 119.992 37.5666 120.258 37.6886C120.525 37.8107 120.736 37.9787 120.89 38.1927C121.043 38.405 121.124 38.6491 121.13 38.925H120.383ZM122.201 42.7119H121.379L123.227 37.5757H124.122L125.971 42.7119H125.148L123.696 38.5087H123.656L122.201 42.7119ZM122.339 40.7006H125.008V41.3526H122.339V40.7006ZM126.395 42.7119V37.5757H127.169V42.0448H129.497V42.7119H126.395ZM131.614 42.7119V37.5757H132.389V42.0448H134.717V42.7119H131.614ZM136.058 37.5757V42.7119H135.283V37.5757H136.058ZM136.868 37.5757H137.809L139.444 41.5683H139.504L141.139 37.5757H142.08V42.7119H141.343V38.9952H141.295L139.78 42.7044H139.168L137.653 38.9927H137.606V42.7119H136.868V37.5757ZM143.664 37.5757V42.7119H142.889V37.5757H143.664ZM144.221 38.2428V37.5757H148.196V38.2428H146.594V42.7119H145.821V38.2428H144.221ZM148.757 42.7119V37.5757H151.977V38.2428H149.532V39.8078H151.809V40.4724H149.532V42.0448H152.007V42.7119H148.757ZM154.357 42.7119H152.694V37.5757H154.41C154.913 37.5757 155.345 37.6786 155.706 37.8842C156.067 38.0882 156.344 38.3816 156.536 38.7645C156.73 39.1457 156.827 39.603 156.827 40.1363C156.827 40.6713 156.729 41.1311 156.534 41.5156C156.34 41.9002 156.059 42.1961 155.691 42.4034C155.323 42.6091 154.879 42.7119 154.357 42.7119ZM153.469 42.0348H154.314C154.705 42.0348 155.031 41.9612 155.29 41.8141C155.549 41.6653 155.743 41.4504 155.872 41.1696C156 40.887 156.065 40.5426 156.065 40.1363C156.065 39.7334 156 39.3915 155.872 39.1106C155.745 38.8297 155.555 38.6165 155.302 38.4711C155.05 38.3256 154.736 38.2529 154.362 38.2529H153.469V42.0348Z" fill="black"/>
</svg>
